<svg width="113" height="34" viewBox="0 0 113 34" fill="none" xmlns="http://www.w3.org/2000/svg">
<path d="M50.0945 25.873V24.1656C49.7051 24.8513 49.1679 25.3689 48.4629 25.6982C47.7647 26.0276 46.8582 26.189 45.7705 26.189C43.716 26.189 42.0039 25.4899 40.6342 24.085C39.2645 22.6868 38.5729 20.9458 38.5729 18.8687C38.5729 17.894 38.7408 16.9596 39.0899 16.0925C39.4324 15.2186 39.9225 14.4456 40.5671 13.7801C41.2519 13.0474 42.024 12.5096 42.8633 12.1534C43.7026 11.8038 44.6493 11.629 45.7034 11.629C46.7575 11.629 47.5767 11.7971 48.3085 12.1332C49.0336 12.4693 49.6245 12.9802 50.0676 13.6658V11.9853H53.2233V25.873H50.1079H50.0945ZM41.8763 18.8149C41.8763 19.9845 42.2657 20.9592 43.0446 21.7524C43.8167 22.5389 44.7634 22.9288 45.8847 22.9288C46.9052 22.9288 47.7982 22.5322 48.5704 21.7457C49.3425 20.9525 49.7319 20.0249 49.7319 18.9628C49.7319 17.8335 49.3425 16.8655 48.5636 16.0589C47.7915 15.2455 46.8784 14.8355 45.8377 14.8355C44.797 14.8355 43.8167 15.2186 43.0379 15.9916C42.2725 16.7647 41.883 17.7058 41.883 18.8149M38.4924 15.1648C37.2368 15.2657 36.2431 15.837 35.753 16.395C35.2561 16.9529 35.0077 17.7125 35.0077 19.1577V25.873H31.7849V11.9853H34.813V13.4642C35.2964 12.839 35.8336 12.5029 36.411 12.2206C36.9951 11.9315 37.7672 11.7837 38.4991 11.7837V15.1648H38.4924ZM30.2474 15.1648C28.9918 15.2657 27.9981 15.837 27.508 16.395C27.0111 16.9529 26.7627 17.7125 26.7627 19.1577V25.873H23.5332V11.9853H26.5613V13.4642C27.0514 12.839 27.5818 12.5029 28.1593 12.2206C28.7434 11.9315 29.5222 11.7837 30.2541 11.7837V15.1648H30.2474ZM11.0314 19.9509C11.1388 20.9525 11.5417 21.7457 12.2198 22.3171C12.9046 22.8952 13.7909 23.1842 14.8786 23.1842C15.597 23.1842 16.2483 23.0296 16.8257 22.7271C17.4031 22.4246 17.8597 22.0011 18.1954 21.4499H21.6734C21.0825 22.9624 20.203 24.1387 19.0347 24.979C17.8597 25.8192 16.5034 26.236 14.9659 26.236C13.9386 26.236 12.9852 26.0545 12.1124 25.6915C11.2395 25.3218 10.4607 24.784 9.76913 24.0648C9.11114 23.3859 8.60086 22.5994 8.24501 21.6986C7.88244 20.7979 7.70116 19.8837 7.70116 18.9426C7.70116 18.0015 7.86901 17.0604 8.19801 16.2067C8.527 15.353 9.01714 14.58 9.66842 13.9011C10.3734 13.1549 11.1724 12.5769 12.0654 12.1735C12.9584 11.7702 13.8715 11.5618 14.8249 11.5618C16.0267 11.5618 17.148 11.8307 18.1954 12.3819C19.2361 12.9264 20.1224 13.6994 20.8542 14.6943C21.2974 15.2926 21.6264 15.958 21.8479 16.7042C22.0628 17.4436 22.1702 18.2973 22.1702 19.2518C22.1702 19.319 22.1702 19.44 22.1568 19.5946C22.1434 19.756 22.1434 19.8635 22.1434 19.9442H11.0314V19.9509ZM18.6856 17.3898C18.4103 16.4689 17.9403 15.7631 17.289 15.2724C16.6377 14.7884 15.8186 14.5464 14.8249 14.5464C13.9655 14.5464 13.2001 14.8086 12.5152 15.3329C11.8304 15.8572 11.3738 16.5361 11.1388 17.3898H18.6856ZM2.12168 25.873V14.8623H0V11.9853H2.12168V7.48828H5.3512V11.9853H7.47959V14.8623H5.3512V25.873H2.12168Z" fill="#E35206"/>
<path d="M99.0837 25.833V13.7401H96.4518V11.9453H99.0837V7.44824H100.863V11.9453H103.495V13.7401H100.863V25.833H99.0837ZM83.4598 11.9453H85.1854V13.525C85.7292 12.8864 86.3604 12.4225 87.0855 12.1268C87.8039 11.8176 88.623 11.6697 89.5496 11.6697C90.5634 11.6697 91.4698 11.8579 92.2688 12.241C93.0678 12.6175 93.6922 13.162 94.1488 13.8745C94.4644 14.3719 94.6926 14.95 94.8404 15.6222C94.9746 16.2944 95.0485 17.2758 95.0485 18.5866V25.8397H93.2961V18.069C93.2961 16.4221 92.9805 15.2391 92.3561 14.4996C91.725 13.7602 90.7246 13.3905 89.3482 13.3905C88.5357 13.3905 87.8308 13.5518 87.2198 13.8812C86.6155 14.2039 86.1321 14.6677 85.7829 15.2727C85.5614 15.6491 85.4069 16.0793 85.3197 16.57C85.2324 17.054 85.1921 17.901 85.1921 19.0975V25.8464H83.4665V11.9587L83.4598 11.9453ZM78.8002 11.9453H80.5794V25.833H78.8002V11.9453ZM80.5794 10.3118H78.8002V7.44824H80.5794V10.3118ZM73.3214 25.833H71.522V11.9453H73.2006V13.5518C73.637 12.9334 74.1137 12.4898 74.6307 12.2007C75.1544 11.9184 75.752 11.7638 76.4368 11.7503L76.4502 13.6796C75.329 13.7804 74.53 14.1165 74.0466 14.6811C73.5631 15.2525 73.3214 16.1734 73.3214 17.4506V25.833ZM59.8125 7.44824H63.7067C64.828 7.44824 65.721 7.50874 66.3924 7.62301C67.0705 7.73729 67.6211 7.93223 68.0709 8.19439C68.8833 8.67837 69.5011 9.31697 69.9308 10.0967C70.3605 10.8765 70.582 11.7503 70.582 12.7318C70.582 13.6594 70.3873 14.5131 69.9979 15.2996C69.6085 16.086 69.0579 16.7112 68.3596 17.175C67.8762 17.5044 67.2921 17.7464 66.614 17.8875C65.9358 18.0354 65.0764 18.1094 64.0223 18.1094H61.6119V25.833H59.8125V7.44824ZM61.6186 9.25647V16.2608H64.2774C65.7613 16.2608 66.8557 15.9785 67.5539 15.4138C68.2589 14.8492 68.6148 13.982 68.6148 12.799C68.6148 11.6159 68.2589 10.6748 67.5472 10.1034C66.8422 9.53879 65.7008 9.24974 64.1297 9.24974H61.6186V9.25647Z" fill="#626262"/>
</svg>
