<svg width="32" height="33" viewBox="0 0 32 33" fill="none" xmlns="http://www.w3.org/2000/svg">
<g clip-path="url(#clip0_2195_2465)">
<path d="M30.4516 7.72581H26.3226V7.20968C26.3226 6.53768 25.8895 5.96994 25.2903 5.75626V2.04839C25.2903 1.19471 24.5956 0.5 23.7419 0.5H8.25806C7.40439 0.5 6.70968 1.19471 6.70968 2.04839V5.75626C6.11045 5.96994 5.67742 6.53768 5.67742 7.20968V7.72581H1.54839C0.69471 7.72581 0 8.42052 0 9.27419V19.0806H1.54839V30.9516C1.54839 31.8053 2.2431 32.5 3.09677 32.5H28.9032C29.7569 32.5 30.4516 31.8053 30.4516 30.9516V19.0806H32V9.27419C32 8.42052 31.3053 7.72581 30.4516 7.72581ZM25.2903 7.20968V7.72581H21.1613V7.20968C21.1613 6.92529 21.393 6.69355 21.6774 6.69355H24.7742C25.0586 6.69355 25.2903 6.92529 25.2903 7.20968ZM21.1613 1.53226H23.7419C24.0263 1.53226 24.2581 1.764 24.2581 2.04839V5.66129H22.1935V3.59677H21.1613V1.53226ZM21.1613 5.75626C20.5621 5.96994 20.129 6.53768 20.129 7.20968V7.72581H11.871V7.20968C11.871 6.53768 11.4379 5.96994 10.8387 5.75626V4.62903H21.1613V5.75626ZM11.871 1.53226H20.129V3.59677H11.871V1.53226ZM7.74194 2.04839C7.74194 1.764 7.97368 1.53226 8.25806 1.53226H10.8387V3.59677H9.80645V5.66129H7.74194V2.04839ZM6.70968 7.20968C6.70968 6.92529 6.94142 6.69355 7.22581 6.69355H10.3226C10.607 6.69355 10.8387 6.92529 10.8387 7.20968V7.72581H6.70968V7.20968ZM29.4194 30.9516C29.4194 31.236 29.1876 31.4677 28.9032 31.4677H20.129V26.3064H29.4194V30.9516ZM25.2903 21.1452V25.2742H23.2258V21.1452H25.2903ZM23.2258 20.1129V18.0484C23.2258 17.4791 23.6888 17.0161 24.2581 17.0161C24.8274 17.0161 25.2903 17.4791 25.2903 18.0484V20.1129H23.2258ZM29.4194 25.2742H26.3226V21.1452H26.8387C27.1231 21.1452 27.3548 21.3769 27.3548 21.6613V24.2419H28.3871V21.6613C28.3871 20.8076 27.6924 20.1129 26.8387 20.1129H26.3226V19.0806H29.4194V25.2742ZM30.9677 18.0484H26.3226C26.3226 16.9098 25.3966 15.9839 24.2581 15.9839C23.1195 15.9839 22.1935 16.9098 22.1935 18.0484H21.1613V13.9194H20.129V10.8226H11.871V13.9194H10.8387V18.0484H4.64516V19.0806H10.8387V19.5968C10.8387 21.0197 11.9964 22.1774 13.4194 22.1774H18.5806C20.0036 22.1774 21.1613 21.0197 21.1613 19.5968V19.0806H22.1935V25.2742H19.0968V31.4677H3.09677C2.81239 31.4677 2.58065 31.236 2.58065 30.9516V19.0806H3.6129V18.0484H1.03226V9.27419C1.03226 8.98981 1.264 8.75806 1.54839 8.75806H30.4516C30.736 8.75806 30.9677 8.98981 30.9677 9.27419V18.0484ZM12.9032 13.9194V11.8548H19.0968V13.9194H18.0645V14.9516H20.129V19.5968C20.129 20.4505 19.4343 21.1452 18.5806 21.1452H13.4194C12.5657 21.1452 11.871 20.4505 11.871 19.5968V14.9516H17.0323V13.9194H12.9032Z" fill="#404040"/>
<path d="M16.0001 15.9834C14.8615 15.9834 13.9355 16.9093 13.9355 18.0479C13.9355 19.1865 14.8615 20.1124 16.0001 20.1124C17.1386 20.1124 18.0646 19.1865 18.0646 18.0479C18.0646 16.9093 17.1386 15.9834 16.0001 15.9834ZM16.0001 19.0802C15.4308 19.0802 14.9678 18.6172 14.9678 18.0479C14.9678 17.4786 15.4308 17.0157 16.0001 17.0157C16.5694 17.0157 17.0323 17.4786 17.0323 18.0479C17.0323 18.6172 16.5694 19.0802 16.0001 19.0802Z" fill="#404040"/>
<path d="M3.61328 27.3389V30.4356H11.8713V27.3389H3.61328ZM10.8391 29.4034H4.64554V28.3711H10.8391V29.4034Z" fill="#404040"/>
<path d="M6.19339 9.79004H5.16113V10.8223H6.19339V9.79004Z" fill="#404040"/>
<path d="M2.06445 9.79004V14.4352H3.09671V10.8223H4.12897V9.79004H2.06445Z" fill="#404040"/>
<path d="M28.3869 29.4033H21.1611V30.4356H28.3869V29.4033Z" fill="#404040"/>
</g>
<defs>
<clipPath id="clip0_2195_2465">
<rect width="32" height="32" fill="white" transform="translate(0 0.5)"/>
</clipPath>
</defs>
</svg>
