<svg width="32" height="33" viewBox="0 0 32 33" fill="none" xmlns="http://www.w3.org/2000/svg">
<g clip-path="url(#clip0_2195_2484)">
<path d="M17.6553 10.6218L18.064 11.1514L18.4728 10.6218C19.6924 9.04144 20.6824 7.29488 21.4266 5.40169C21.5923 4.97794 21.6769 4.532 21.6769 4.07681C21.677 2.10413 20.0965 0.5 18.1539 0.5H17.9737C16.0315 0.5 14.4512 2.10413 14.4512 4.07675C14.4512 4.532 14.5358 4.97794 14.7129 5.43056C15.4462 7.29588 16.4362 9.04244 17.6553 10.6218ZM17.9742 1.53225H18.1544C19.5272 1.53225 20.6447 2.67344 20.6447 4.07675C20.6447 4.40244 20.5843 4.72194 20.4542 5.05275C19.841 6.6135 19.0385 8.08706 18.064 9.44244C17.0901 8.08762 16.286 6.61044 15.663 5.02437C15.5437 4.72144 15.4834 4.40244 15.4834 4.07675C15.4834 2.67344 16.6009 1.53225 17.9742 1.53225Z" fill="#404040"/>
<path d="M18.065 5.6612C18.9187 5.6612 19.6134 4.96652 19.6134 4.11283C19.6134 3.25914 18.9187 2.56445 18.065 2.56445C17.2113 2.56445 16.5166 3.25914 16.5166 4.11283C16.5166 4.96652 17.2113 5.6612 18.065 5.6612ZM18.065 3.59664C18.3494 3.59664 18.5811 3.82839 18.5811 4.11277C18.5811 4.39714 18.3494 4.62889 18.065 4.62889C17.7806 4.62889 17.5489 4.39714 17.5489 4.11277C17.5489 3.82839 17.7806 3.59664 18.065 3.59664Z" fill="#404040"/>
<path d="M22.71 28.8872C22.71 29.7409 23.4046 30.4356 24.2583 30.4356C25.112 30.4356 25.8067 29.7409 25.8067 28.8872C25.8067 28.0336 25.112 27.3389 24.2583 27.3389C23.4046 27.3388 22.71 28.0336 22.71 28.8872ZM24.7745 28.8872C24.7745 29.1721 24.5427 29.4034 24.2583 29.4034C23.974 29.4034 23.7422 29.1721 23.7422 28.8872C23.7422 28.6024 23.974 28.3711 24.2583 28.3711C24.5427 28.3711 24.7745 28.6023 24.7745 28.8872Z" fill="#404040"/>
<path d="M30.4512 9.27441H27.7838C26.4373 9.27441 25.3317 10.286 25.2177 11.5919L22.9797 25.5124C22.8878 25.5475 22.798 25.5862 22.7098 25.628V12.8874H13.419V27.339H12.3867V28.8874C12.3867 29.741 13.0814 30.4357 13.9351 30.4357H20.9983C21.5795 31.6543 22.8202 32.5002 24.2577 32.5002C26.2499 32.5002 27.8705 30.879 27.8705 28.8874C27.8705 27.5552 27.1438 26.3919 26.0672 25.7653L28.2235 12.3712H30.4512C31.3048 12.3712 31.9995 11.6765 31.9995 10.8229C31.9995 9.96916 31.3049 9.27441 30.4512 9.27441ZM16.5157 13.9196H17.548V15.9841H16.5157V13.9196ZM15.4835 13.9196V17.0164H18.5802V13.9196H21.677V20.1132H14.4512V13.9196H15.4835ZM16.5157 21.1454H17.548V23.2099H16.5157V21.1454ZM14.4512 21.1454H15.4835V24.2422H18.5802V21.1454H21.677V26.364C21.3998 26.6474 21.1712 26.9772 20.9983 27.3389H14.4512V21.1454ZM13.9351 29.4035C13.6507 29.4035 13.419 29.1722 13.419 28.8874V28.3712H20.6861C20.6618 28.5405 20.6448 28.7119 20.6448 28.8874C20.6448 29.0629 20.6618 29.2342 20.6861 29.4035H13.9351ZM26.8383 28.8874C26.8383 30.3103 25.6806 31.468 24.2577 31.468C22.8347 31.468 21.677 30.3103 21.677 28.8874C21.677 27.4644 22.8347 26.3067 24.2577 26.3067C25.6806 26.3067 26.8383 27.4644 26.8383 28.8874ZM30.4512 11.3389H27.3436L25.0845 25.3735C24.8187 25.311 24.5425 25.2744 24.2577 25.2744C24.1916 25.2744 24.1265 25.2805 24.0615 25.2842L26.2412 11.7193C26.3124 10.9136 26.9756 10.3067 27.7838 10.3067H30.4512C30.7356 10.3067 30.9673 10.5384 30.9673 10.8228C30.9673 11.1072 30.7356 11.3389 30.4512 11.3389Z" fill="#404040"/>
<path d="M7.41881 0.5H4.03456C3.29188 0.5 2.59356 0.789563 2.06813 1.31444L1.78119 1.60194C0.710688 2.01381 0 3.04038 0 4.1965V4.53613C0 5.11675 0.133687 5.685 0.378312 6.20631C0.146062 6.47781 0 6.82519 0 7.20969C0 8.06338 0.694687 8.75806 1.54838 8.75806H2.26319C2.53056 9.48063 3.0575 10.0897 3.77594 10.4489L4.129 10.6254V10.8829L3.16488 11.0037C1.3605 11.2293 0 12.7699 0 14.5887V15.9839V16.5V19.0806V19.5968V20.1129C0 20.9666 0.694687 21.6612 1.54838 21.6612H2.0645V30.2838C1.74656 30.6812 1.54838 31.1782 1.54838 31.7258V32.5H5.16125H6.1935H9.80637V31.7258C9.80637 31.1782 9.60819 30.6812 9.29025 30.2838V21.6613H9.80637C10.6601 21.6613 11.3547 20.9666 11.3547 20.1129V19.5968V19.0807V16.5V15.9839V14.5887C11.3547 12.7704 9.99425 11.2292 8.18987 11.0037L7.22575 10.8829V10.6254L7.57881 10.4489C8.29725 10.0896 8.82369 9.48063 9.09156 8.75806H9.80637C10.6601 8.75806 11.3547 8.06338 11.3547 7.20969C11.3547 6.80813 11.1973 6.44531 10.9454 6.16969C11.2107 5.63137 11.3547 5.04144 11.3547 4.436C11.3548 2.26569 9.58919 0.5 7.41881 0.5ZM1.54838 7.72581C1.264 7.72581 1.03225 7.49406 1.03225 7.20969C1.03225 6.92531 1.264 6.69356 1.54838 6.69356H2.064V7.67887C2.064 7.69487 2.06713 7.70981 2.06713 7.72581H1.54838ZM2.07894 5.66131H1.54838C1.45344 5.66131 1.36156 5.67269 1.27175 5.68919C1.11487 5.32688 1.03225 4.93463 1.03225 4.53613V4.1965C1.03225 3.44294 1.51275 2.77662 2.22762 2.53819L2.34325 2.4995L2.7985 2.04425C3.12881 1.71444 3.56806 1.53225 4.03463 1.53225H7.41888C9.01994 1.53225 10.3226 2.83494 10.3226 4.436C10.3226 4.87113 10.223 5.29538 10.0378 5.6845C9.96187 5.67313 9.8855 5.66125 9.8065 5.66125H9.29037V5.14512C9.29037 3.99625 8.5585 2.9805 7.46844 2.61762L7.38894 2.59131L7.06225 3.57044L7.14225 3.59675C7.54381 3.73044 7.86588 4.00912 8.05888 4.36269C7.486 4.18 6.87594 4.22694 6.33813 4.49587C6.16369 4.58313 5.96856 4.62906 5.7745 4.62906H5.51438C4.93581 4.62906 4.43412 4.23681 4.29375 3.67575L4.11363 2.95575L3.11231 3.20556L3.29244 3.92606C3.2945 3.93331 3.29762 3.94 3.29969 3.94725C2.61162 4.24812 2.144 4.90413 2.07894 5.66131ZM2.0645 16.5V17.5322H1.54838C1.36669 17.5322 1.19431 17.5694 1.03225 17.6272V16.5H2.0645ZM5.16131 15.4677H6.19356V17.5322H5.16131V15.4677ZM7.22581 18.5645V15.4677H8.25806V18.5645V20.629H3.09675V18.5645V15.4677H4.129V18.5645H7.22581ZM1.54838 20.6291C1.264 20.6291 1.03225 20.3978 1.03225 20.1129V19.5968V19.0807C1.03225 18.7958 1.264 18.5646 1.54838 18.5646H2.0645V20.6291H1.54838ZM2.60644 31.4678C2.72619 30.8794 3.2475 30.4355 3.87094 30.4355C4.49438 30.4355 5.01519 30.8794 5.13544 31.4678H2.60644ZM6.21938 31.4678C6.33913 30.8794 6.86044 30.4355 7.48387 30.4355C8.10738 30.4355 8.62813 30.8794 8.74837 31.4678H6.21938ZM8.25806 29.5457C8.01494 29.459 7.75688 29.4032 7.48387 29.4032C7.00644 29.4032 6.56313 29.5488 6.19356 29.7966V24.7581H5.16131V29.7966C4.79175 29.5488 4.34844 29.4032 3.871 29.4032C3.59794 29.4032 3.33987 29.459 3.09681 29.5457V21.6613H8.25813V29.5457H8.25806ZM10.3226 20.1129C10.3226 20.3978 10.0908 20.629 9.80644 20.629H9.29031V18.5645H9.80644C10.0908 18.5645 10.3226 18.7957 10.3226 19.0806V19.5968V20.1129ZM10.3226 17.6273C10.1605 17.5694 9.98812 17.5323 9.80644 17.5323H9.29031V16.5H10.3226V17.6273ZM8.06194 12.0278C9.35069 12.1888 10.3226 13.2897 10.3226 14.5888V15.4677H9.29031V14.4355H2.0645V15.4677H1.03225V14.5887C1.03225 13.2896 2.00413 12.1892 3.29288 12.0282L4.39275 11.8909L5.67737 13.8176L6.962 11.8904L8.06194 12.0278ZM7.11744 9.52556L6.76438 9.70206C6.41238 9.87806 6.19356 10.2316 6.19356 10.6254V11.1823L5.67744 11.9565L5.16131 11.1823V10.6254C5.16131 10.2316 4.9425 9.87806 4.5905 9.70206L4.23744 9.52556C3.53344 9.17356 3.09625 8.46594 3.09625 7.67831V5.83781C3.09625 5.3965 3.3765 5.0125 3.78581 4.868C4.21056 5.35781 4.8315 5.66131 5.51487 5.66131H5.775C6.12856 5.66131 6.48263 5.57769 6.7995 5.41925C7.09987 5.26906 7.44156 5.24431 7.76 5.35112L8.25806 5.51731L8.25856 7.67887C8.25856 8.46594 7.82144 9.17356 7.11744 9.52556ZM9.80644 7.72581H9.28775C9.28775 7.70981 9.29088 7.69487 9.29088 7.67887V6.69356H9.8065C10.0909 6.69356 10.3226 6.92531 10.3226 7.20969C10.3226 7.49406 10.0908 7.72581 9.80644 7.72581Z" fill="#404040"/>
</g>
<defs>
<clipPath id="clip0_2195_2484">
<rect width="32" height="32" fill="white" transform="translate(0 0.5)"/>
</clipPath>
</defs>
</svg>
