<svg width="32" height="33" viewBox="0 0 32 33" fill="none" xmlns="http://www.w3.org/2000/svg">
<path d="M10.501 20.207C10.6962 20.4023 11.0128 20.4022 11.208 20.207C11.4033 20.0118 11.4033 19.6952 11.2081 19.4999C11.0128 19.3047 10.6963 19.3047 10.501 19.5C10.3058 19.6952 10.3057 20.0118 10.501 20.207Z" fill="#404040"/>
<path d="M29 25.5C28.4696 25.5 27.9609 25.2893 27.5858 24.9142C27.2107 24.5391 27 24.0304 27 23.5C27 23.3674 26.9473 23.2402 26.8536 23.1464C26.7598 23.0527 26.6326 23 26.5 23C26.3674 23 26.2402 23.0527 26.1464 23.1464C26.0527 23.2402 26 23.3674 26 23.5C26 24.0304 25.7893 24.5391 25.4142 24.9142C25.0391 25.2893 24.5304 25.5 24 25.5C23.8674 25.5 23.7402 25.5527 23.6464 25.6464C23.5527 25.7402 23.5 25.8674 23.5 26C23.5 26.1326 23.5527 26.2598 23.6464 26.3536C23.7402 26.4473 23.8674 26.5 24 26.5C24.5304 26.5 25.0391 26.7107 25.4142 27.0858C25.7893 27.4609 26 27.9696 26 28.5C26 28.6326 26.0527 28.7598 26.1464 28.8536C26.2402 28.9473 26.3674 29 26.5 29C26.6326 29 26.7598 28.9473 26.8536 28.8536C26.9473 28.7598 27 28.6326 27 28.5C27 27.9696 27.2107 27.4609 27.5858 27.0858C27.9609 26.7107 28.4696 26.5 29 26.5C29.1326 26.5 29.2598 26.4473 29.3536 26.3536C29.4473 26.2598 29.5 26.1326 29.5 26C29.5 25.8674 29.4473 25.7402 29.3536 25.6464C29.2598 25.5527 29.1326 25.5 29 25.5ZM26.5 26.845C26.2774 26.5099 25.9901 26.2226 25.655 26C25.9901 25.7774 26.2774 25.4901 26.5 25.155C26.7226 25.4901 27.0099 25.7774 27.345 26C27.0099 26.2226 26.7226 26.5099 26.5 26.845Z" fill="#404040"/>
<path d="M6.5 21.5C5.96957 21.5 5.46086 21.2893 5.08579 20.9142C4.71071 20.5391 4.5 20.0304 4.5 19.5C4.5 19.3674 4.44732 19.2402 4.35355 19.1464C4.25979 19.0527 4.13261 19 4 19C3.86739 19 3.74021 19.0527 3.64645 19.1464C3.55268 19.2402 3.5 19.3674 3.5 19.5C3.5 20.0304 3.28929 20.5391 2.91421 20.9142C2.53914 21.2893 2.03043 21.5 1.5 21.5C1.36739 21.5 1.24021 21.5527 1.14645 21.6464C1.05268 21.7402 1 21.8674 1 22C1 22.1326 1.05268 22.2598 1.14645 22.3536C1.24021 22.4473 1.36739 22.5 1.5 22.5C2.03043 22.5 2.53914 22.7107 2.91421 23.0858C3.28929 23.4609 3.5 23.9696 3.5 24.5C3.5 24.6326 3.55268 24.7598 3.64645 24.8536C3.74021 24.9473 3.86739 25 4 25C4.13261 25 4.25979 24.9473 4.35355 24.8536C4.44732 24.7598 4.5 24.6326 4.5 24.5C4.5 23.9696 4.71071 23.4609 5.08579 23.0858C5.46086 22.7107 5.96957 22.5 6.5 22.5C6.63261 22.5 6.75979 22.4473 6.85355 22.3536C6.94732 22.2598 7 22.1326 7 22C7 21.8674 6.94732 21.7402 6.85355 21.6464C6.75979 21.5527 6.63261 21.5 6.5 21.5ZM4 22.845C3.77739 22.5099 3.4901 22.2226 3.155 22C3.4901 21.7774 3.77739 21.4901 4 21.155C4.22261 21.4901 4.5099 21.7774 4.845 22C4.5099 22.2226 4.22261 22.5099 4 22.845Z" fill="#404040"/>
<path d="M30.8907 11.1875L24.8907 3.6875C24.8438 3.62897 24.7844 3.58172 24.7168 3.54927C24.6492 3.51681 24.5752 3.49997 24.5002 3.5H7.00021C6.92166 3.49992 6.84419 3.51834 6.77409 3.55379C6.70398 3.58923 6.64322 3.64069 6.59671 3.704L1.09671 11.204C1.04206 11.2786 1.00915 11.3668 1.00165 11.459C0.994146 11.5511 1.01234 11.6436 1.05421 11.726C1.07196 11.7585 1.09307 11.789 1.11721 11.817L15.6172 29.317L15.6217 29.313C15.667 29.3706 15.7248 29.4172 15.7907 29.4492C15.8566 29.4812 15.9289 29.4979 16.0022 29.4979C16.0755 29.4979 16.1478 29.4812 16.2137 29.4492C16.2796 29.4172 16.3374 29.3706 16.3827 29.313L16.3872 29.317L30.8872 11.817C30.9136 11.7866 30.9361 11.753 30.9542 11.717C30.9947 11.6317 31.0102 11.5368 30.9989 11.4431C30.9877 11.3494 30.9502 11.2608 30.8907 11.1875ZM19.8552 12L16.0002 26.992L12.1452 12H19.8552ZM12.3832 11L16.0002 4.9715L19.6172 11H12.3832ZM16.8832 4.5H23.6667L20.4747 10.4855L16.8832 4.5ZM11.5002 10.528L7.88321 4.5H15.1172L11.5002 10.528ZM14.9597 26.9605L2.56371 12H11.1137L14.9597 26.9605ZM20.8877 12H29.4377L17.0407 26.9605L20.8877 12ZM21.3337 11L24.5837 4.905L27.8597 9H26.5002C26.2241 9 26.0002 9.22386 26.0002 9.5C26.0002 9.77614 26.2241 10 26.5002 10H28.6597L29.4597 11H21.3337ZM3.22021 10H5.00021C5.27635 10 5.50021 9.77614 5.50021 9.5C5.50021 9.22386 5.27635 9 5.00021 9H3.95371L6.95871 4.9025L10.6172 11H2.48721L3.22021 10Z" fill="#404040"/>
<path d="M10.0654 18.2944L5.70343 13.0647C5.52656 12.8527 5.21126 12.8242 4.9992 13.001C4.78714 13.1779 4.75862 13.4932 4.9355 13.7053L9.29747 18.9349C9.47435 19.147 9.78965 19.1755 10.0017 18.9986C10.2138 18.8217 10.2423 18.5064 10.0654 18.2944Z" fill="#404040"/>
<path d="M24 9.5C24 9.77614 24.2239 10 24.5 10C24.7761 10 25 9.77614 25 9.5C25 9.22386 24.7761 9 24.5 9C24.2239 9 24 9.22386 24 9.5Z" fill="#404040"/>
</svg>
