<svg width="32" height="33" viewBox="0 0 32 33" fill="none" xmlns="http://www.w3.org/2000/svg">
<g clip-path="url(#clip0_2160_2968)">
<path d="M20.6194 0.684815C20.4727 0.530274 20.2715 0.4375 20.063 0.4375H7.57984C5.27637 0.4375 3.375 2.3313 3.375 4.63453V28.2403C3.375 30.5438 5.27637 32.4376 7.57984 32.4376H24.5227C26.8262 32.4376 28.7276 30.5438 28.7276 28.2403V9.49636C28.7276 9.29543 28.6348 9.10231 28.5035 8.95534L20.6194 0.684815ZM20.8435 3.16602L26.1228 8.70802H22.691C21.6707 8.70802 20.8435 7.88869 20.8435 6.86842V3.16602ZM24.5227 30.8917H7.57984C6.13453 30.8917 4.9209 29.6937 4.9209 28.2403V4.63453C4.9209 3.18921 6.12671 1.9834 7.57984 1.9834H19.2976V6.86842C19.2976 8.7466 20.8128 10.2539 22.691 10.2539H27.1817V28.2403C27.1817 29.6937 25.9759 30.8917 24.5227 30.8917Z" fill="#6E6E6E"/>
<path d="M22.4116 25.5586H9.68897C9.26392 25.5586 8.91602 25.9063 8.91602 26.3315C8.91602 26.7566 9.26392 27.1045 9.68897 27.1045H22.4195C22.8445 27.1045 23.1924 26.7566 23.1924 26.3315C23.1924 25.9063 22.8445 25.5586 22.4116 25.5586Z" fill="#6E6E6E"/>
<path d="M15.4869 22.7835C15.6339 22.938 15.8348 23.0308 16.0511 23.0308C16.2677 23.0308 16.4686 22.938 16.6153 22.7835L21.1449 17.9216C21.4386 17.6123 21.4154 17.1177 21.1063 16.8318C20.797 16.5381 20.3023 16.561 20.0164 16.8704L16.8241 20.2945V11.854C16.8241 11.4287 16.4762 11.0811 16.0511 11.0811C15.6261 11.0811 15.2782 11.4287 15.2782 11.854V20.2945L12.0936 16.8704C11.7999 16.5613 11.3128 16.5381 11.0037 16.8318C10.6947 17.1255 10.6715 17.6126 10.9652 17.9216L15.4869 22.7835Z" fill="#6E6E6E"/>
</g>
<defs>
<clipPath id="clip0_2160_2968">
<rect width="32" height="32" fill="white" transform="translate(0 0.5)"/>
</clipPath>
</defs>
</svg>
