<svg width="32" height="33" viewBox="0 0 32 33" fill="none" xmlns="http://www.w3.org/2000/svg">
<g clip-path="url(#clip0_2203_2847)">
<mask id="mask0_2203_2847" style="mask-type:luminance" maskUnits="userSpaceOnUse" x="0" y="0" width="32" height="33">
<path d="M0 0.50098H32V32.501H0V0.50098Z" fill="white"/>
</mask>
<g mask="url(#mask0_2203_2847)">
<path d="M29.027 14.4969V31.0302C29.027 31.3069 28.8027 31.5312 28.526 31.5312H3.47561C3.19892 31.5312 2.97461 31.3069 2.97461 31.0302V14.4969" stroke="#404040" stroke-width="0.9375" stroke-miterlimit="10" stroke-linecap="round" stroke-linejoin="round"/>
<path d="M2.97363 8.48535V2.47316C2.97363 1.64304 3.64657 0.970164 4.47663 0.970164H15.9998V7.48323" stroke="#404040" stroke-width="0.9375" stroke-miterlimit="10" stroke-linecap="round" stroke-linejoin="round"/>
<path d="M28.0231 8.48592H29.0251C29.5786 8.48592 30.0271 8.93455 30.0271 9.48798V13.496C30.0271 14.0494 29.5786 14.498 29.0251 14.498H2.9727C2.41933 14.498 1.9707 14.0494 1.9707 13.496V9.48798C1.9707 8.93455 2.41933 8.48592 2.9727 8.48592H11.991" stroke="#404040" stroke-width="0.9375" stroke-miterlimit="10" stroke-linecap="round" stroke-linejoin="round"/>
<path d="M20.0088 8.48535H26.021" stroke="#404040" stroke-width="0.9375" stroke-miterlimit="10" stroke-linecap="round" stroke-linejoin="round"/>
<path d="M19.5063 12.4932H12.4922C12.2155 12.4932 11.9912 12.2689 11.9912 11.9922V7.98404C11.9912 7.70741 12.2155 7.48304 12.4922 7.48304H19.5063C19.783 7.48304 20.0073 7.70741 20.0073 7.98404V11.9922C20.0073 12.2689 19.783 12.4932 19.5063 12.4932Z" stroke="#404040" stroke-width="0.9375" stroke-miterlimit="10" stroke-linecap="round" stroke-linejoin="round"/>
<path d="M22.0107 10.4902H22.5117" stroke="#404040" stroke-width="0.9375" stroke-miterlimit="10" stroke-linecap="round" stroke-linejoin="round"/>
<path d="M9.48633 10.4893H9.98733" stroke="#404040" stroke-width="0.9375" stroke-miterlimit="10" stroke-linecap="round" stroke-linejoin="round"/>
<path d="M9.48633 12.4932H9.98733" stroke="#404040" stroke-width="0.9375" stroke-miterlimit="10" stroke-linecap="round" stroke-linejoin="round"/>
<path d="M24.5176 10.4893H25.0186" stroke="#404040" stroke-width="0.9375" stroke-miterlimit="10" stroke-linecap="round" stroke-linejoin="round"/>
<path d="M27.0225 10.4902H27.5235" stroke="#404040" stroke-width="0.9375" stroke-miterlimit="10" stroke-linecap="round" stroke-linejoin="round"/>
<path d="M22.0107 12.4932H22.5117" stroke="#404040" stroke-width="0.9375" stroke-miterlimit="10" stroke-linecap="round" stroke-linejoin="round"/>
<path d="M24.5176 12.4932H25.0186" stroke="#404040" stroke-width="0.9375" stroke-miterlimit="10" stroke-linecap="round" stroke-linejoin="round"/>
<path d="M27.0215 12.4932H27.5225" stroke="#404040" stroke-width="0.9375" stroke-miterlimit="10" stroke-linecap="round" stroke-linejoin="round"/>
<path d="M29.0252 8.48535V6.48135C29.0252 6.2046 28.8009 5.98029 28.5242 5.98029H15.999" stroke="#404040" stroke-width="0.9375" stroke-miterlimit="10" stroke-linecap="round" stroke-linejoin="round"/>
<path d="M15.999 1.97338H24.0151C24.2918 1.97338 24.5161 2.1977 24.5161 2.47438V3.47638C24.5161 3.75313 24.2918 3.97738 24.0151 3.97738H20.5081C20.2314 3.97738 20.0071 4.2017 20.0071 4.47845V5.98145" stroke="#404040" stroke-width="0.9375" stroke-miterlimit="10" stroke-linecap="round" stroke-linejoin="round"/>
<path d="M2.97363 19.5088H29.0261" stroke="#404040" stroke-width="0.9375" stroke-miterlimit="10" stroke-linecap="round" stroke-linejoin="round"/>
<path d="M5.97949 14.4968V19.5068" stroke="#404040" stroke-width="0.9375" stroke-miterlimit="10" stroke-linecap="round" stroke-linejoin="round"/>
<path d="M26.0195 14.4968V19.5068" stroke="#404040" stroke-width="0.9375" stroke-miterlimit="10" stroke-linecap="round" stroke-linejoin="round"/>
<path d="M24.0166 14.4968V19.5068" stroke="#404040" stroke-width="0.9375" stroke-miterlimit="10" stroke-linecap="round" stroke-linejoin="round"/>
<path d="M7.9834 14.4968V19.5068" stroke="#404040" stroke-width="0.9375" stroke-miterlimit="10" stroke-linecap="round" stroke-linejoin="round"/>
<path d="M24.0157 16.502H7.9834" stroke="#404040" stroke-width="0.9375" stroke-miterlimit="10" stroke-linecap="round" stroke-linejoin="round"/>
<path d="M6.48047 27.5234H29.026" stroke="#404040" stroke-width="0.9375" stroke-miterlimit="10" stroke-linecap="round" stroke-linejoin="round"/>
<path d="M2.97461 27.5234H4.4778" stroke="#404040" stroke-width="0.9375" stroke-miterlimit="10" stroke-linecap="round" stroke-linejoin="round"/>
<path d="M10.9893 16.5019V17.5039" stroke="#404040" stroke-width="0.9375" stroke-miterlimit="10" stroke-linecap="round" stroke-linejoin="round"/>
<path d="M21.0107 16.5019V17.5039" stroke="#404040" stroke-width="0.9375" stroke-miterlimit="10" stroke-linecap="round" stroke-linejoin="round"/>
<path d="M15.999 16.5019V17.5039" stroke="#404040" stroke-width="0.9375" stroke-miterlimit="10" stroke-linecap="round" stroke-linejoin="round"/>
<path d="M9.48633 31.5312V30.5293C9.48633 29.9758 9.93495 29.5273 10.4883 29.5273H21.5105C22.0639 29.5273 22.5125 29.9758 22.5125 30.5293V31.5312" stroke="#404040" stroke-width="0.9375" stroke-miterlimit="10" stroke-linecap="round" stroke-linejoin="round"/>
<path d="M4.47656 32.0332H5.47856" stroke="#404040" stroke-width="0.9375" stroke-miterlimit="10" stroke-linecap="round" stroke-linejoin="round"/>
<path d="M26.5215 32.0332H27.5235" stroke="#404040" stroke-width="0.9375" stroke-miterlimit="10" stroke-linecap="round" stroke-linejoin="round"/>
</g>
<path d="M14.8085 18.6332L18.5834 17.6217L20.8159 25.9537C21.0952 26.9961 20.4766 28.0675 19.4342 28.3469C18.3918 28.6262 17.3204 28.0076 17.0411 26.9652L14.8085 18.6332Z" fill="#EAEAEA" stroke="#404040" stroke-width="0.8"/>
<circle cx="14.6431" cy="10.7183" r="7.78213" transform="rotate(75 14.6431 10.7183)" fill="#EAEAEA" stroke="#404040" stroke-width="0.8"/>
<circle cx="14.7066" cy="10.7005" r="5.79336" transform="rotate(75 14.7066 10.7005)" fill="#EAEAEA" stroke="#404040" stroke-width="0.8"/>
<path d="M13.7652 21.4411L20.8672 19.5381" stroke="#404040" stroke-width="0.8"/>
</g>
<defs>
<clipPath id="clip0_2203_2847">
<rect width="32" height="32" fill="white" transform="translate(0 0.5)"/>
</clipPath>
</defs>
</svg>
