<svg width="32" height="33" viewBox="0 0 32 33" fill="none" xmlns="http://www.w3.org/2000/svg">
<path d="M2.19141 20.3193V23.6912C2.19141 24.0362 2.47141 24.3162 2.81641 24.3162H4.83016C5.08328 24.3162 5.31141 24.1631 5.40766 23.9293L6.33891 21.6712C6.43516 21.4368 6.66328 21.2843 6.91641 21.2843H17.6683" stroke="#404040" stroke-width="0.9375" stroke-miterlimit="10" stroke-linecap="round" stroke-linejoin="round"/>
<path d="M2.19141 18.1309V14.4121" stroke="#404040" stroke-width="0.9375" stroke-miterlimit="10" stroke-linecap="round" stroke-linejoin="round"/>
<path d="M26.9424 16.3177V14.4561" stroke="#404040" stroke-width="0.9375" stroke-miterlimit="10" stroke-linecap="round" stroke-linejoin="round"/>
<path d="M5.69727 23.6465H8.29102" stroke="#404040" stroke-width="0.9375" stroke-miterlimit="10" stroke-linecap="round" stroke-linejoin="round"/>
<path d="M19.3018 27.7808H11.6869C11.5213 27.7808 11.3625 27.7151 11.2453 27.5981L8.54574 24.9032C8.4283 24.7859 8.3623 24.6268 8.3623 24.4609V21.4609" stroke="#404040" stroke-width="0.9375" stroke-miterlimit="10" stroke-linecap="round" stroke-linejoin="round"/>
<path d="M8.56934 24.5332H11.6153V27.5421" stroke="#404040" stroke-width="0.9375" stroke-miterlimit="10" stroke-linecap="round" stroke-linejoin="round"/>
<path d="M14.0981 14.2947H27.9925C28.3381 14.2947 28.6175 14.0147 28.6175 13.6697V9.39844C28.6175 9.05281 28.3381 8.77344 27.9925 8.77344H1.09375C0.74875 8.77344 0.46875 9.05281 0.46875 9.39844V13.6697C0.46875 14.0147 0.74875 14.2947 1.09375 14.2947H11.9106" stroke="#404040" stroke-width="0.9375" stroke-miterlimit="10" stroke-linecap="round" stroke-linejoin="round"/>
<path d="M14.5664 8.58359V2.93359H2.81641C2.47122 2.93359 2.19141 3.21341 2.19141 3.55859V8.55172" stroke="#404040" stroke-width="0.9375" stroke-miterlimit="10" stroke-linecap="round" stroke-linejoin="round"/>
<path d="M12.8164 4.68359H3.94141V7.02397H12.8164V4.68359Z" stroke="#404040" stroke-width="0.9375" stroke-miterlimit="10" stroke-linecap="round" stroke-linejoin="round"/>
<path d="M18.5842 19.1463H6.79883V16.4336H22.2863" stroke="#404040" stroke-width="0.9375" stroke-miterlimit="10" stroke-linecap="round" stroke-linejoin="round"/>
<path d="M17.5552 2.93359H14.5664" stroke="#404040" stroke-width="0.9375" stroke-miterlimit="10" stroke-linecap="round" stroke-linejoin="round"/>
<path d="M19.7436 2.93359H26.9423V4.52109L14.7842 5.65797" stroke="#404040" stroke-width="0.9375" stroke-miterlimit="10" stroke-linecap="round" stroke-linejoin="round"/>
<path d="M9.61283 12.4121H8.04883" stroke="#404040" stroke-width="0.9375" stroke-miterlimit="10" stroke-linecap="round" stroke-linejoin="round"/>
<path d="M9.61283 10.6562H8.04883" stroke="#404040" stroke-width="0.9375" stroke-miterlimit="10" stroke-linecap="round" stroke-linejoin="round"/>
<path d="M5.50541 12.4121H3.94141" stroke="#404040" stroke-width="0.9375" stroke-miterlimit="10" stroke-linecap="round" stroke-linejoin="round"/>
<path d="M5.50541 10.6562H3.94141" stroke="#404040" stroke-width="0.9375" stroke-miterlimit="10" stroke-linecap="round" stroke-linejoin="round"/>
<path d="M30.0882 27.3308C30.9932 26.1533 31.5313 24.6789 31.5313 23.0789C31.5313 19.2196 28.4025 16.0908 24.5438 16.0908C20.6844 16.0908 17.5557 19.2196 17.5557 23.0789C17.5557 26.9377 20.6844 30.0664 24.5438 30.0664C26.0132 30.0664 27.3763 29.6127 28.5013 28.8371" stroke="#404040" stroke-width="0.9375" stroke-miterlimit="10" stroke-linecap="round" stroke-linejoin="round"/>
<path d="M23.7611 23.8613L22.7305 24.8919" stroke="#404040" stroke-width="0.9375" stroke-miterlimit="10" stroke-linecap="round" stroke-linejoin="round"/>
<path d="M26.2458 21.376L25.293 22.3289" stroke="#404040" stroke-width="0.9375" stroke-miterlimit="10" stroke-linecap="round" stroke-linejoin="round"/>
<path d="M27.1338 19.2256L26.1841 19.384L25.9785 20.6163L27.0053 21.6431L28.2376 21.4375L28.3961 20.4879" stroke="#404040" stroke-width="0.9375" stroke-miterlimit="10" stroke-linecap="round" stroke-linejoin="round"/>
<path d="M21.9527 26.9303L22.9024 26.7718L23.1079 25.5394L22.0812 24.5127L20.8489 24.7183L20.6904 25.6679" stroke="#404040" stroke-width="0.9375" stroke-miterlimit="10" stroke-linecap="round" stroke-linejoin="round"/>
<path d="M27.6678 26.203C27.3091 26.5617 26.7276 26.5617 26.3688 26.203L23.2607 23.0949C23.1097 22.9439 23.1097 22.6991 23.2607 22.5481L24.0129 21.7959C24.1639 21.6449 24.4087 21.6449 24.5597 21.7959L27.6678 24.904C28.0265 25.2627 28.0265 25.8442 27.6678 26.203Z" stroke="#404040" stroke-width="0.9375" stroke-miterlimit="10" stroke-linecap="round" stroke-linejoin="round"/>
<path d="M20.9297 19.4648L23.5263 22.0615" stroke="#404040" stroke-width="0.9375" stroke-miterlimit="10" stroke-linecap="round" stroke-linejoin="round"/>
<path d="M22.0234 21.4238L22.8886 20.5586" stroke="#404040" stroke-width="0.9375" stroke-miterlimit="10" stroke-linecap="round" stroke-linejoin="round"/>
</svg>
