<svg width="32" height="33" viewBox="0 0 32 33" fill="none" xmlns="http://www.w3.org/2000/svg">
<g clip-path="url(#clip0_2160_2873)">
<path d="M14.717 22.1084C14.299 22.1115 13.7883 21.9477 13.4682 21.6508L8.86188 17.3774C7.94212 16.4576 8.46252 15.3057 8.77177 14.9723C9.40983 14.2845 10.4888 14.2439 11.1766 14.8822L14.3437 17.8203L20.0184 9.62405C20.5528 8.85263 21.6151 8.65959 22.3863 9.19352C23.1579 9.7277 23.351 10.7898 22.817 11.5614C22.817 11.5614 16.0323 21.3611 16.0248 21.372C15.7025 21.8373 15.2562 22.1043 14.717 22.1084ZM9.45187 15.6034C9.15373 15.9012 9.18442 16.4113 9.4927 16.6973L14.099 20.9707C14.2633 21.1229 14.4872 21.1973 14.7095 21.1727C14.9327 21.1483 15.1342 21.0284 15.262 20.8438L22.0541 11.0333C22.2971 10.6825 22.2092 10.1993 21.8584 9.95649C21.5073 9.71344 21.0241 9.80114 20.7811 10.1522L14.802 18.7886C14.7255 18.899 14.6047 18.971 14.4708 18.9857C14.3372 19 14.2038 18.956 14.105 18.8644C14.105 18.8644 10.5502 15.5666 10.5458 15.5623C10.4038 15.4306 9.86524 15.1897 9.45187 15.6034Z" fill="#404040"/>
<path d="M16.0471 32.3337C15.9234 32.3337 15.7992 32.3061 15.6874 32.2537C10.3681 29.7621 6.31723 25.7344 3.64733 20.2825C1.44106 15.7772 0.830306 11.515 0.670126 9.89143C0.600063 9.17944 0.994351 8.51505 1.65198 8.23842C4.28032 7.13263 6.05945 4.6792 6.29524 1.83584C6.35033 1.16952 6.8932 0.666992 7.55759 0.666992H24.5366C25.1911 0.666992 25.7453 1.17531 25.798 1.82449C26.0297 4.66978 27.8064 7.12611 30.4347 8.23528C31.0967 8.51481 31.4941 9.18041 31.4241 9.89192C31.2636 11.5155 30.6529 15.778 28.4466 20.283C25.7767 25.7347 21.7258 29.7621 16.4066 32.2537C16.2947 32.3061 16.1705 32.3337 16.0471 32.3337ZM7.55759 1.59473C7.38002 1.59473 7.23482 1.73147 7.21984 1.91267C6.95529 5.10176 4.95969 7.85331 2.01172 9.09368C1.73146 9.21158 1.56331 9.49545 1.59351 9.80059C1.74862 11.3739 2.34077 15.505 4.4806 19.8745C7.04927 25.1201 10.9407 28.997 16.0471 31.3977C21.153 28.9972 25.0447 25.1203 27.6133 19.8752C29.7534 15.5057 30.3456 11.3744 30.5007 9.80107C30.5309 9.49618 30.3593 9.21061 30.0743 9.09005C27.126 7.84607 25.1331 5.09089 24.8734 1.89962C24.8594 1.72857 24.7115 1.59473 24.5366 1.59473H7.55759Z" fill="#404040"/>
<path d="M25.7056 19.8799C25.4799 19.7586 25.3859 19.4849 25.5017 19.2566C26.0515 18.1728 26.5231 17.0503 26.9213 15.9025C27.2641 14.9136 27.5531 13.9062 27.7889 12.8866C27.9614 12.141 28.1059 11.3887 28.2165 10.6313C28.2182 10.6197 28.2199 10.6081 28.2216 10.5963C25.5981 9.15272 23.695 6.66813 22.9864 3.76074H9.10758C8.83361 4.8849 8.38303 5.94962 7.76768 6.92688C7.63118 7.14359 7.34488 7.20858 7.12793 7.07232C6.91122 6.93582 6.84598 6.64928 6.98249 6.43257C7.55701 5.52054 7.974 4.52443 8.22261 3.47252C8.31152 3.09587 8.64444 2.83301 9.0322 2.83301H23.0615C23.4493 2.83301 23.7822 3.09611 23.8714 3.47252C24.5099 6.17769 26.2789 8.48905 28.7243 9.81397C29.0273 9.97778 29.1981 10.3187 29.1493 10.6615C29.0295 11.5081 28.8705 12.3493 28.6767 13.1818C28.433 14.2287 28.1329 15.2627 27.777 16.2772C27.3736 17.427 26.879 18.5886 26.3291 19.6762C26.2472 19.8374 25.9699 20.022 25.7056 19.8799Z" fill="#404040"/>
<path d="M16.0463 29.9193C15.9137 29.9193 15.7813 29.8877 15.6605 29.8246C11.2631 27.5249 7.87571 23.9939 5.59164 19.3301C3.94129 15.9598 3.2409 12.756 2.94373 10.6616C2.89517 10.3188 3.06598 9.97786 3.3687 9.81406C4.22517 9.35019 5.00408 8.76407 5.68442 8.07238C5.86392 7.88949 6.15771 7.88707 6.34035 8.06682C6.523 8.24633 6.52542 8.54011 6.34591 8.72276C5.61701 9.46374 4.78495 10.0938 3.87171 10.5963C4.11451 12.2764 4.76538 15.5332 6.42491 18.922C8.61234 23.3892 11.8493 26.7725 16.0463 28.9793C19.5166 27.1545 22.3431 24.5136 24.4474 21.1293C24.5827 20.9116 24.8687 20.8449 25.0864 20.9802C25.3038 21.1155 25.3705 21.4016 25.2352 21.6192C23.0333 25.1603 20.0716 27.9211 16.4321 29.8246C16.3113 29.8877 16.1787 29.9193 16.0463 29.9193Z" fill="#404040"/>
</g>
<defs>
<clipPath id="clip0_2160_2873">
<rect width="31.6667" height="31.6667" fill="white" transform="translate(0.166992 0.666992)"/>
</clipPath>
</defs>
</svg>
