<svg width="24" height="24" viewBox="0 0 24 24" fill="none" xmlns="http://www.w3.org/2000/svg">
<path fill-rule="evenodd" clip-rule="evenodd" d="M6.46967 6.46967C6.76256 6.17678 7.23744 6.17678 7.53033 6.46967L17.5303 16.4697C17.8232 16.7626 17.8232 17.2374 17.5303 17.5303C17.2374 17.8232 16.7626 17.8232 16.4697 17.5303L6.46967 7.53033C6.17678 7.23744 6.17678 6.76256 6.46967 6.46967Z" fill="#B2B4C1"/>
<path fill-rule="evenodd" clip-rule="evenodd" d="M17 6.25C17.4142 6.25 17.75 6.58579 17.75 7V17C17.75 17.4142 17.4142 17.75 17 17.75H7C6.58579 17.75 6.25 17.4142 6.25 17C6.25 16.5858 6.58579 16.25 7 16.25H16.25V7C16.25 6.58579 16.5858 6.25 17 6.25Z" fill="#B2B4C1"/>
</svg>
