<svg width="25" height="24" viewBox="0 0 25 24" fill="none" xmlns="http://www.w3.org/2000/svg">
<path fill-rule="evenodd" clip-rule="evenodd" d="M12.5 2C12.7762 2 13 2.22386 13 2.5V16.745C13.0741 16.7022 13.1438 16.6491 13.2071 16.5858L16.8964 12.8964C17.0917 12.7012 17.4083 12.7012 17.6036 12.8964C17.7988 13.0917 17.7988 13.4083 17.6036 13.6036L13.9142 17.2929C13.1332 18.0739 11.8669 18.0739 11.0858 17.2929L7.39645 13.6036C7.20118 13.4083 7.20118 13.0917 7.39645 12.8964C7.59171 12.7012 7.90829 12.7012 8.10355 12.8964L11.7929 16.5858C11.8563 16.6491 11.926 16.7022 12 16.745V2.5C12 2.22386 12.2239 2 12.5 2ZM4.5 21.5C4.5 21.2239 4.72386 21 5 21H20C20.2761 21 20.5 21.2239 20.5 21.5C20.5 21.7761 20.2761 22 20 22H5C4.72386 22 4.5 21.7761 4.5 21.5Z" fill="#B2B4C1" stroke="#B2B4C1" stroke-linecap="round" stroke-linejoin="round"/>
</svg>
