<svg width="20" height="20" viewBox="0 0 20 20" fill="none" xmlns="http://www.w3.org/2000/svg">
<path d="M1.66997 5.09458C1.6666 5.21463 1.66661 5.34295 1.66663 5.47339L1.66663 14.5266C1.6666 14.7369 1.66658 14.9417 1.68075 15.1152C1.69632 15.3057 1.73304 15.5304 1.84829 15.7566C2.00807 16.0702 2.26304 16.3252 2.57665 16.485C2.80283 16.6002 3.02761 16.637 3.21811 16.6525C3.39157 16.6667 3.59641 16.6667 3.80673 16.6666H16.1932C16.4035 16.6667 16.6084 16.6667 16.7818 16.6525C16.9723 16.637 17.1971 16.6002 17.4233 16.485C17.7369 16.3252 17.9919 16.0702 18.1516 15.7566C18.2669 15.5304 18.3036 15.3057 18.3192 15.1152C18.3333 14.9417 18.3333 14.737 18.3333 14.5267V5.47339C18.3333 5.34298 18.3333 5.21462 18.33 5.09458L11.0554 11.0465C10.4414 11.5488 9.55851 11.5488 8.94456 11.0465L1.66997 5.09458Z" fill="white"/>
<path d="M17.5449 3.58348C17.5054 3.55903 17.4649 3.53616 17.4233 3.51497C17.1971 3.39973 16.9723 3.363 16.7818 3.34744C16.6084 3.33327 16.4035 3.33329 16.1932 3.33332H3.80672C3.5964 3.33329 3.39157 3.33327 3.21811 3.34744C3.02761 3.363 2.80283 3.39973 2.57665 3.51497C2.53505 3.53617 2.49449 3.55903 2.45505 3.58349L9.99996 9.7566L17.5449 3.58348Z" fill="white"/>
</svg>
