<svg width="24" height="24" viewBox="0 0 24 24" fill="none" xmlns="http://www.w3.org/2000/svg">
<path d="M7.75471 9.21788C8.49687 10.6868 9.48151 12.0645 10.7086 13.2917C11.9357 14.5188 13.3135 15.5034 14.7824 16.2456L16.5731 14.4549C16.735 14.293 16.9862 14.2618 17.1828 14.3791L20.6988 16.4766C20.9786 16.6435 21.0266 17.0292 20.7962 17.2595L17.2135 20.8422C16.9611 21.0947 16.5927 21.1953 16.2506 21.0932C14.7296 20.6393 13.2522 19.9995 11.8542 19.1738C10.442 18.3398 9.11087 17.3161 7.89754 16.1028C6.68421 14.8894 5.66053 13.5583 4.82649 12.1461C4.00083 10.7481 3.36102 9.27071 2.90709 7.74969C2.805 7.40763 2.90564 7.03924 3.15805 6.78682L6.74076 3.20411C6.97115 2.97372 7.35679 3.0217 7.52371 3.3015L9.62122 6.81749C9.73853 7.01412 9.70728 7.2653 9.54538 7.4272L7.75471 9.21788Z" stroke="#16181E" stroke-width="1.5" stroke-linecap="round" stroke-linejoin="round"/>
</svg>
