<svg width="25" height="24" viewBox="0 0 25 24" fill="none" xmlns="http://www.w3.org/2000/svg">
<path d="M8.823 6.72329L9.6714 7.57169C11.234 6.00929 13.7663 6.00929 15.3282 7.57169L16.1773 6.72329C14.146 4.69217 10.8544 4.69217 8.823 6.72329Z" fill="white"/>
<path d="M20.4998 10.3998C20.4998 5.98118 16.9195 2.3999 12.4999 2.3999C8.0815 2.3999 4.49998 5.98118 4.49998 10.3998C3.6163 10.3998 2.8999 11.1162 2.8999 11.9999V16.7999C2.8999 17.6836 3.6163 18.4 4.49998 18.4H6.89998C7.34182 18.4 7.6999 18.0421 7.6999 17.5998V13.6C7.6999 13.1601 7.50022 12.4998 7.25614 12.1343L6.10006 10.4001C6.10006 6.86486 8.96518 3.99998 12.5001 3.99998C16.0361 3.99998 18.9002 6.86486 18.9002 10.4001L17.7439 12.1343C17.4998 12.4998 17.2999 13.1601 17.2999 13.6V17.8235C16.1273 19.1555 14.4141 19.9998 12.4999 19.9998H10.8998V21.5999H12.4999C15.1154 21.5999 17.4295 20.3397 18.8889 18.4H20.4998C21.3835 18.4 22.0999 17.6836 22.0999 16.7999V11.9999C22.0999 11.1162 21.3835 10.3998 20.4998 10.3998Z" fill="white"/>
</svg>
