<svg width="24" height="24" viewBox="0 0 24 24" fill="none" xmlns="http://www.w3.org/2000/svg">
<path d="M7.83869 2.36576C7.72019 2.16714 7.51669 2.03429 7.28717 2.00574C7.05766 1.97719 6.82781 2.05613 6.66426 2.21968L2.21969 6.66425C2.03038 6.85356 1.95633 7.12943 2.02541 7.38809C2.50118 9.16965 3.21953 10.9003 4.18054 12.5274C5.04637 13.9934 6.10874 15.3747 7.36703 16.633C8.62533 17.8913 10.0066 18.9537 11.4726 19.8195C13.0998 20.7805 14.8304 21.4988 16.6119 21.9746C16.8706 22.0437 17.1465 21.9696 17.3358 21.7803L21.7803 17.3358C21.9439 17.1722 22.0228 16.9424 21.9943 16.7129C21.9657 16.4833 21.8329 16.2798 21.6343 16.1613L17.2325 13.5354C16.9375 13.3594 16.5608 13.4063 16.3179 13.6492L14.6431 15.324C13.4227 14.6513 12.2749 13.7973 11.2388 12.7612C10.2027 11.7252 9.34868 10.5773 8.67601 9.35696L10.3509 7.68211C10.5937 7.43926 10.6406 7.06249 10.4646 6.76754L7.83869 2.36576Z" fill="#6E6E6E"/>
</svg>
