<svg width="20" height="20" viewBox="0 0 20 20" fill="none" xmlns="http://www.w3.org/2000/svg">
<path d="M6.80632 2.43088C6.45857 1.84796 5.65514 1.74801 5.17518 2.22798L2.18958 5.21357C1.82416 5.57899 1.66986 6.12187 1.82349 6.63664C2.21609 7.95213 2.7695 9.23006 3.48374 10.4394C4.20527 11.6611 5.09057 12.8122 6.13916 13.8607C7.18774 14.9093 8.33881 15.7946 9.56048 16.5161C10.7698 17.2304 12.0478 17.7838 13.3632 18.1764C13.878 18.33 14.4209 18.1757 14.7863 17.8103L17.7719 14.8247C18.2519 14.3448 18.1519 13.5413 17.569 13.1936L14.639 11.4456C14.2294 11.2013 13.7061 11.2664 13.3688 11.6037L12.2025 12.7699C11.1855 12.2094 10.229 11.4977 9.36561 10.6343C8.50222 9.77088 7.79053 8.81435 7.22997 7.79737L8.39624 6.63111C8.73353 6.29381 8.79863 5.77052 8.55424 5.36087L6.80632 2.43088Z" fill="white"/>
</svg>
