<svg width="16" height="16" viewBox="0 0 16 16" fill="none" xmlns="http://www.w3.org/2000/svg">
<path fill-rule="evenodd" clip-rule="evenodd" d="M7.33333 2.5C4.66396 2.5 2.5 4.66396 2.5 7.33333C2.5 10.0027 4.66396 12.1667 7.33333 12.1667C10.0027 12.1667 12.1667 10.0027 12.1667 7.33333C12.1667 4.66396 10.0027 2.5 7.33333 2.5ZM1.5 7.33333C1.5 4.11167 4.11167 1.5 7.33333 1.5C10.555 1.5 13.1667 4.11167 13.1667 7.33333C13.1667 10.555 10.555 13.1667 7.33333 13.1667C4.11167 13.1667 1.5 10.555 1.5 7.33333Z" fill="#696B7A"/>
<path fill-rule="evenodd" clip-rule="evenodd" d="M10.7465 10.7467C10.9418 10.5514 11.2584 10.5514 11.4537 10.7467L14.3537 13.6467C14.5489 13.8419 14.5489 14.1585 14.3537 14.3538C14.1584 14.549 13.8418 14.549 13.6465 14.3538L10.7465 11.4538C10.5513 11.2585 10.5513 10.9419 10.7465 10.7467Z" fill="#696B7A"/>
</svg>
