<svg width="18" height="18" viewBox="0 0 18 18" fill="none" xmlns="http://www.w3.org/2000/svg">
<path d="M3.90335 8.49446L12.9596 1.42103C12.9833 1.4024 13.0117 1.39082 13.0416 1.38762C13.0716 1.38443 13.1018 1.38974 13.1289 1.40296C13.156 1.41618 13.1788 1.43676 13.1946 1.46234C13.2105 1.48792 13.2189 1.51747 13.2187 1.54759V3.10049C13.2187 3.19893 13.1725 3.29335 13.0962 3.35362L5.86406 9.00071L13.0962 14.6478C13.1746 14.7081 13.2187 14.8025 13.2187 14.9009V16.4538C13.2187 16.5884 13.0641 16.6628 12.9596 16.5804L3.90335 9.50696C3.82637 9.44692 3.76411 9.37012 3.72128 9.2824C3.67845 9.19467 3.65619 9.09834 3.65619 9.00071C3.65619 8.90309 3.67845 8.80676 3.72128 8.71903C3.76411 8.63131 3.82637 8.55451 3.90335 8.49446Z" fill="#E35206"/>
</svg>
