<svg width="18" height="18" viewBox="0 0 18 18" fill="none" xmlns="http://www.w3.org/2000/svg">
<path d="M14.0967 8.49446L5.0404 1.42103C5.01674 1.4024 4.9883 1.39082 4.95835 1.38762C4.9284 1.38443 4.89816 1.38974 4.8711 1.40296C4.84404 1.41618 4.82125 1.43676 4.80536 1.46234C4.78946 1.48792 4.78111 1.51747 4.78125 1.54759V3.10049C4.78125 3.19893 4.82746 3.29335 4.9038 3.35362L12.1359 9.00071L4.9038 14.6478C4.82545 14.7081 4.78125 14.8025 4.78125 14.9009V16.4538C4.78125 16.5884 4.93594 16.6628 5.0404 16.5804L14.0967 9.50696C14.1736 9.44692 14.2359 9.37012 14.2787 9.2824C14.3216 9.19467 14.3438 9.09834 14.3438 9.00071C14.3438 8.90309 14.3216 8.80676 14.2787 8.71903C14.2359 8.63131 14.1736 8.55451 14.0967 8.49446Z" fill="#E35206"/>
</svg>
