<svg width="24" height="24" viewBox="0 0 24 24" fill="none" xmlns="http://www.w3.org/2000/svg">
<path d="M20.982 7.37503C20.9682 7.2148 20.6105 6.90708 20.4592 6.85219C20.3075 6.79697 20.1376 6.83456 20.0235 6.94809L17.7339 9.23769L14.7599 6.26374L17.0954 3.93712C17.2096 3.82337 17.2469 3.65413 17.1919 3.50324C17.1363 3.35205 16.7696 3.03175 16.6084 3.01787C15.1901 2.89613 13.8004 3.40061 12.7956 4.40174C11.4195 5.77278 11.0551 7.77488 11.7004 9.48143C11.6299 9.54063 11.5603 9.60336 11.4916 9.671L3.69603 16.9993C3.69328 17.002 3.69057 17.0049 3.68759 17.0075C2.7708 17.9209 2.7708 19.407 3.68759 20.3206C4.60453 21.2339 6.08537 21.2228 7.00201 20.3094C7.00596 20.3057 7.00958 20.302 7.01319 20.2979L14.305 12.4712C14.3715 12.4047 14.4332 12.3351 14.4914 12.2637C16.2049 12.9077 18.2158 12.5455 19.5931 11.1736C20.5977 10.1724 21.1044 8.78782 20.982 7.37503Z" stroke="#F6891E" stroke-linejoin="round"/>
</svg>
