<svg width="20" height="20" viewBox="0 0 20 20" fill="none" xmlns="http://www.w3.org/2000/svg">
<path d="M2.95501 15.7423L3.409 14.8513L3.409 14.8513L2.95501 15.7423ZM2.59083 15.3782L1.69982 15.8322L1.69982 15.8322L2.59083 15.3782ZM17.4092 15.3782L16.5182 14.9242V14.9242L17.4092 15.3782ZM17.045 15.7423L17.499 16.6333H17.499L17.045 15.7423ZM17.4092 4.62151L16.5182 5.0755L16.5182 5.0755L17.4092 4.62151ZM17.045 4.25733L17.499 3.36633L17.499 3.36632L17.045 4.25733ZM2.59083 4.62151L1.69982 4.16752L1.69982 4.16752L2.59083 4.62151ZM2.95501 4.25733L2.50102 3.36633H2.50102L2.95501 4.25733ZM10.5277 10.4014L11.1609 11.1754V11.1754L10.5277 10.4014ZM9.4723 10.4014L8.83906 11.1754L8.83906 11.1754L9.4723 10.4014ZM16.5 5.49984V14.4998H18.5V5.49984H16.5ZM16.1667 14.8332H3.83333V16.8332H16.1667V14.8332ZM3.5 14.4998V5.49984H1.5V14.4998H3.5ZM3.83333 5.1665H16.1667V3.1665H3.83333V5.1665ZM3.83333 14.8332C3.71437 14.8332 3.62081 14.8331 3.53998 14.8319C3.45913 14.8306 3.40539 14.8282 3.36743 14.8251C3.29031 14.8188 3.33366 14.8129 3.409 14.8513L2.50102 16.6333C2.75462 16.7626 3.00377 16.8021 3.20457 16.8185C3.3937 16.8339 3.61648 16.8332 3.83333 16.8332V14.8332ZM1.5 14.4998C1.5 14.7167 1.49922 14.9395 1.51467 15.1286C1.53108 15.3294 1.57061 15.5786 1.69982 15.8322L3.48183 14.9242C3.52022 14.9995 3.51433 15.0429 3.50803 14.9657C3.50493 14.9278 3.50257 14.874 3.5013 14.7932C3.50003 14.7124 3.5 14.6188 3.5 14.4998H1.5ZM3.409 14.8513C3.44036 14.8673 3.46586 14.8928 3.48183 14.9242L1.69982 15.8322C1.87559 16.1771 2.15605 16.4576 2.50102 16.6333L3.409 14.8513ZM16.5 14.4998C16.5 14.6188 16.5 14.7124 16.4987 14.7932C16.4974 14.874 16.4951 14.9278 16.492 14.9657C16.4857 15.0429 16.4798 14.9995 16.5182 14.9242L18.3002 15.8322C18.4294 15.5786 18.4689 15.3294 18.4853 15.1286C18.5008 14.9395 18.5 14.7167 18.5 14.4998H16.5ZM16.1667 16.8332C16.3835 16.8332 16.6063 16.8339 16.7954 16.8185C16.9962 16.8021 17.2454 16.7626 17.499 16.6333L16.591 14.8513C16.6663 14.8129 16.7097 14.8188 16.6326 14.8251C16.5946 14.8282 16.5409 14.8306 16.46 14.8319C16.3792 14.8331 16.2856 14.8332 16.1667 14.8332V16.8332ZM16.5182 14.9242C16.5341 14.8928 16.5596 14.8673 16.591 14.8513L17.499 16.6333C17.8439 16.4576 18.1244 16.1771 18.3002 15.8321L16.5182 14.9242ZM18.5 5.49984C18.5 5.28298 18.5008 5.0602 18.4853 4.87107C18.4689 4.67027 18.4294 4.42112 18.3002 4.16752L16.5182 5.0755C16.4798 5.00016 16.4857 4.95682 16.492 5.03394C16.4951 5.07189 16.4974 5.12563 16.4987 5.20649C16.5 5.28732 16.5 5.38088 16.5 5.49984H18.5ZM16.1667 5.1665C16.2856 5.1665 16.3792 5.16653 16.46 5.1678C16.5409 5.16907 16.5946 5.17144 16.6326 5.17454C16.7097 5.18084 16.6663 5.18672 16.591 5.14834L17.499 3.36632C17.2454 3.23711 16.9962 3.19758 16.7954 3.18118C16.6063 3.16573 16.3835 3.1665 16.1667 3.1665V5.1665ZM18.3002 4.16752C18.1244 3.82256 17.8439 3.54209 17.499 3.36633L16.591 5.14834C16.5596 5.13236 16.5341 5.10686 16.5182 5.0755L18.3002 4.16752ZM3.5 5.49984C3.5 5.38088 3.50003 5.28732 3.5013 5.20649C3.50257 5.12563 3.50493 5.07189 3.50803 5.03394C3.51433 4.95682 3.52022 5.00016 3.48183 5.0755L1.69982 4.16752C1.57061 4.42112 1.53108 4.67027 1.51467 4.87107C1.49922 5.0602 1.5 5.28298 1.5 5.49984H3.5ZM3.83333 3.1665C3.61648 3.1665 3.3937 3.16573 3.20457 3.18118C3.00377 3.19758 2.75462 3.23711 2.50102 3.36633L3.409 5.14834C3.33366 5.18672 3.29031 5.18084 3.36743 5.17454C3.40539 5.17144 3.45913 5.16907 3.53998 5.1678C3.62081 5.16653 3.71437 5.1665 3.83333 5.1665V3.1665ZM3.48183 5.0755C3.46586 5.10686 3.44036 5.13236 3.409 5.14834L2.50102 3.36633C2.15605 3.54209 1.87559 3.82256 1.69982 4.16752L3.48183 5.0755ZM16.8668 3.92285L9.89446 9.62746L11.1609 11.1754L18.1332 5.47077L16.8668 3.92285ZM10.1055 9.62746L3.13324 3.92285L1.86676 5.47077L8.83906 11.1754L10.1055 9.62746ZM9.89446 9.62746C9.95585 9.57723 10.0441 9.57723 10.1055 9.62746L8.83906 11.1754C9.5144 11.7279 10.4856 11.7279 11.1609 11.1754L9.89446 9.62746Z" fill="#B2B4C1"/>
</svg>
