<svg width="20" height="20" viewBox="0 0 20 20" fill="none" xmlns="http://www.w3.org/2000/svg">
<path d="M12.0813 8.33333C12.0813 9.48393 11.1486 10.4167 9.99801 10.4167C8.84741 10.4167 7.91467 9.48393 7.91467 8.33333C7.91467 7.18274 8.84741 6.25 9.99801 6.25C11.1486 6.25 12.0813 7.18274 12.0813 8.33333Z" stroke="#B2B4C1" stroke-width="2" stroke-linejoin="round"/>
<path d="M15.8332 8.33333C15.8332 12.3628 11.8696 15.9778 10.4768 17.1237C10.1958 17.3548 9.80383 17.3548 9.5229 17.1237C8.13012 15.9778 4.1665 12.3628 4.1665 8.33333C4.1665 5.11167 6.77818 2.5 9.99984 2.5C13.2215 2.5 15.8332 5.11167 15.8332 8.33333Z" stroke="#B2B4C1" stroke-width="2" stroke-linejoin="round"/>
</svg>
