<svg width="20" height="20" viewBox="0 0 20 20" fill="none" xmlns="http://www.w3.org/2000/svg">
<path d="M6.55777 7.7439C7.15952 8.9349 7.95787 10.052 8.95284 11.047C9.9478 12.0419 11.0649 12.8403 12.2559 13.442L13.2427 12.4552C13.6475 12.0505 14.2754 11.9724 14.767 12.2656L16.1216 13.0737C16.8211 13.491 16.941 14.4551 16.365 15.0311L14.916 16.4801C14.2849 17.1112 13.3598 17.3724 12.5217 17.0658C11.6138 16.7336 10.7297 16.3171 9.88168 15.8163C8.73669 15.14 7.65736 14.31 6.67358 13.3262C5.68979 12.3425 4.85978 11.2631 4.18354 10.1181C3.68268 9.27009 3.26618 8.38603 2.93403 7.47808C2.62743 6.63999 2.88865 5.71487 3.51969 5.08384L4.96875 3.63478C5.5447 3.05882 6.50882 3.17875 6.92612 3.87826L7.73419 5.2328C8.02745 5.72437 7.94933 6.35233 7.54458 6.75708L6.55777 7.7439Z" stroke="#B2B4C1" stroke-width="2" stroke-linecap="round" stroke-linejoin="round"/>
</svg>
