<svg width="20" height="20" viewBox="0 0 20 20" fill="none" xmlns="http://www.w3.org/2000/svg">
<g clip-path="url(#clip0_2482_4690)">
<path d="M18.8281 10C18.8281 5.1535 14.8465 1.17188 10 1.17188C9.8111 1.17188 9.58496 1.17813 9.39896 1.18958C8.38455 0.420532 7.13654 0 5.85938 0C2.62878 0 0 2.66785 0 5.89844C0 7.1756 0.420532 8.42361 1.18958 9.43802C1.17813 9.62402 1.17188 9.8111 1.17188 10C1.17188 14.8465 5.1535 18.8281 10 18.8281C10.1889 18.8281 10.376 18.8219 10.562 18.8104C11.5764 19.5795 12.8244 20 14.1016 20C17.3322 20 20 17.3712 20 14.1406C20 12.8635 19.5795 11.5764 18.8104 10.562C18.8219 10.376 18.8281 10.1889 18.8281 10ZM10 15.8984C8.83102 15.8984 7.67792 15.5843 6.82465 15.015C6.07727 14.5163 5.41916 13.8347 5.80841 13.0249C6.21155 12.1991 7.33612 12.2319 7.77054 12.7667C8.08182 13.1496 8.9975 13.5376 10.0714 13.5376C10.9418 13.5376 12.3438 13.0798 12.3438 12.3828C12.3438 11.6794 10.9462 11.1719 10 11.1719C7.10098 11.1719 5.27344 9.41544 5.27344 7.65625C5.27344 5.94788 6.92917 4.21066 9.9971 4.20959C11.1592 4.20914 12.3219 4.48044 13.1357 5.02411C13.8835 5.52216 14.5418 6.20438 14.1525 7.01416C13.7743 7.78915 12.679 7.87506 12.1898 7.27112C11.8791 6.8895 11.0025 6.50146 9.92844 6.50146C9.05823 6.50146 7.61719 6.95923 7.61719 7.65625C7.61719 8.35968 9.0538 8.82812 10 8.82812C12.899 8.82812 14.6875 10.6236 14.6875 12.3828C14.6875 14.1502 12.8909 15.8984 10 15.8984Z" fill="#B2B4C1"/>
</g>
<defs>
<clipPath id="clip0_2482_4690">
<rect width="20" height="20" fill="white"/>
</clipPath>
</defs>
</svg>
